<mxfile host="app.diagrams.net" modified="2022-10-06T06:04:31.939Z" agent="5.0 (Macintosh; Intel Mac OS X 10_15_7) AppleWebKit/537.36 (KHTML, like Gecko) Chrome/106.0.0.0 Safari/537.36" etag="KYQdUCoHkaUNpa8D5RT9" version="20.4.0" type="github">
  <diagram id="M5O3EzlUA1d2RFMGLHzP" name="Page-1">
    <mxGraphModel dx="1051" dy="623" grid="1" gridSize="10" guides="1" tooltips="1" connect="1" arrows="1" fold="1" page="1" pageScale="1" pageWidth="850" pageHeight="1100" math="0" shadow="0">
      <root>
        <mxCell id="0" />
        <mxCell id="1" parent="0" />
        <mxCell id="PFDOe1v4cv7csHDmh5ZU-6" style="edgeStyle=orthogonalEdgeStyle;rounded=0;orthogonalLoop=1;jettySize=auto;html=1;entryX=0.499;entryY=0.037;entryDx=0;entryDy=0;entryPerimeter=0;fontSize=4;" edge="1" parent="1" source="PFDOe1v4cv7csHDmh5ZU-1" target="PFDOe1v4cv7csHDmh5ZU-4">
          <mxGeometry relative="1" as="geometry" />
        </mxCell>
        <mxCell id="PFDOe1v4cv7csHDmh5ZU-1" value="Our Backend (Java or Kotlin)" style="swimlane;horizontal=0;" vertex="1" parent="1">
          <mxGeometry x="340" y="250" width="160" height="170" as="geometry" />
        </mxCell>
        <mxCell id="PFDOe1v4cv7csHDmh5ZU-3" value="Firebase Admin SDK&lt;br&gt;+&lt;br&gt;Firebase Private Key" style="text;html=1;align=center;verticalAlign=middle;resizable=0;points=[];autosize=1;strokeColor=none;fillColor=none;" vertex="1" parent="PFDOe1v4cv7csHDmh5ZU-1">
          <mxGeometry x="20" y="45" width="130" height="60" as="geometry" />
        </mxCell>
        <mxCell id="PFDOe1v4cv7csHDmh5ZU-4" value="" style="verticalLabelPosition=bottom;verticalAlign=top;html=1;shadow=0;dashed=0;strokeWidth=1;shape=mxgraph.android.phone2;strokeColor=#c0c0c0;" vertex="1" parent="1">
          <mxGeometry x="385" y="740" width="70" height="120" as="geometry" />
        </mxCell>
        <mxCell id="PFDOe1v4cv7csHDmh5ZU-5" value="&lt;p style=&quot;font-size: 4px;&quot;&gt;Firebase Client SDK&lt;br&gt;+&lt;br&gt;Google-Services.json&lt;/p&gt;" style="text;html=1;align=center;verticalAlign=middle;resizable=0;points=[];autosize=1;strokeColor=none;fillColor=none;" vertex="1" parent="1">
          <mxGeometry x="390" y="750" width="60" height="40" as="geometry" />
        </mxCell>
        <mxCell id="PFDOe1v4cv7csHDmh5ZU-7" value="&lt;font style=&quot;font-size: 10px;&quot;&gt;Using the admin SDK on our server side, &lt;br&gt;we publish data message to the FCM&lt;/font&gt;" style="text;html=1;align=left;verticalAlign=middle;resizable=0;points=[];autosize=1;strokeColor=none;fillColor=none;fontSize=4;" vertex="1" parent="1">
          <mxGeometry x="420" y="420" width="200" height="40" as="geometry" />
        </mxCell>
        <mxCell id="PFDOe1v4cv7csHDmh5ZU-8" value="Using the client SDK,&lt;br&gt;&amp;nbsp;we access the published data&lt;br&gt;on the mobile phone." style="text;html=1;align=left;verticalAlign=middle;resizable=0;points=[];autosize=1;strokeColor=none;fillColor=none;fontSize=10;" vertex="1" parent="1">
          <mxGeometry x="425" y="690" width="160" height="50" as="geometry" />
        </mxCell>
      </root>
    </mxGraphModel>
  </diagram>
</mxfile>
